<svg id="visual" viewBox="0 0 900 450" width="900" height="450" xmlns="http://www.w3.org/2000/svg" xmlns:xlink="http://www.w3.org/1999/xlink" version="1.1"><rect x="0" y="0" width="900" height="450" fill="#001220"></rect><path d="M0 326L21.5 321.2C43 316.3 86 306.7 128.8 296.5C171.7 286.3 214.3 275.7 257.2 280C300 284.3 343 303.7 385.8 312.3C428.7 321 471.3 319 514.2 318.8C557 318.7 600 320.3 642.8 317.3C685.7 314.3 728.3 306.7 771.2 298.5C814 290.3 857 281.7 878.5 277.3L900 273L900 451L878.5 451C857 451 814 451 771.2 451C728.3 451 685.7 451 642.8 451C600 451 557 451 514.2 451C471.3 451 428.7 451 385.8 451C343 451 300 451 257.2 451C214.3 451 171.7 451 128.8 451C86 451 43 451 21.5 451L0 451Z" fill="#fa7268"></path><path d="M0 305L21.5 305C43 305 86 305 128.8 311.2C171.7 317.3 214.3 329.7 257.2 334.2C300 338.7 343 335.3 385.8 337C428.7 338.7 471.3 345.3 514.2 341.7C557 338 600 324 642.8 320.8C685.7 317.7 728.3 325.3 771.2 328.5C814 331.7 857 330.3 878.5 329.7L900 329L900 451L878.5 451C857 451 814 451 771.2 451C728.3 451 685.7 451 642.8 451C600 451 557 451 514.2 451C471.3 451 428.7 451 385.8 451C343 451 300 451 257.2 451C214.3 451 171.7 451 128.8 451C86 451 43 451 21.5 451L0 451Z" fill="#ef5f67"></path><path d="M0 380L21.5 374.7C43 369.3 86 358.7 128.8 358.2C171.7 357.7 214.3 367.3 257.2 366.3C300 365.3 343 353.7 385.8 350C428.7 346.3 471.3 350.7 514.2 352.2C557 353.7 600 352.3 642.8 351.2C685.7 350 728.3 349 771.2 353.8C814 358.7 857 369.3 878.5 374.7L900 380L900 451L878.5 451C857 451 814 451 771.2 451C728.3 451 685.7 451 642.8 451C600 451 557 451 514.2 451C471.3 451 428.7 451 385.8 451C343 451 300 451 257.2 451C214.3 451 171.7 451 128.8 451C86 451 43 451 21.5 451L0 451Z" fill="#e34c67"></path><path d="M0 404L21.5 397.7C43 391.3 86 378.7 128.8 374.8C171.7 371 214.3 376 257.2 377C300 378 343 375 385.8 378.7C428.7 382.3 471.3 392.7 514.2 390.7C557 388.7 600 374.3 642.8 374.5C685.7 374.7 728.3 389.3 771.2 394.7C814 400 857 396 878.5 394L900 392L900 451L878.5 451C857 451 814 451 771.2 451C728.3 451 685.7 451 642.8 451C600 451 557 451 514.2 451C471.3 451 428.7 451 385.8 451C343 451 300 451 257.2 451C214.3 451 171.7 451 128.8 451C86 451 43 451 21.5 451L0 451Z" fill="#d53867"></path><path d="M0 423L21.5 420.2C43 417.3 86 411.7 128.8 406.7C171.7 401.7 214.3 397.3 257.2 401C300 404.7 343 416.3 385.8 421.7C428.7 427 471.3 426 514.2 425.7C557 425.3 600 425.7 642.8 420.3C685.7 415 728.3 404 771.2 404.5C814 405 857 417 878.5 423L900 429L900 451L878.5 451C857 451 814 451 771.2 451C728.3 451 685.7 451 642.8 451C600 451 557 451 514.2 451C471.3 451 428.7 451 385.8 451C343 451 300 451 257.2 451C214.3 451 171.7 451 128.8 451C86 451 43 451 21.5 451L0 451Z" fill="#c62368"></path></svg>